<svg width="173" height="53" viewBox="0 0 173 53" fill="none" xmlns="http://www.w3.org/2000/svg">
<g clip-path="url(#clip0_0_3)">
<path d="M25.2555 46.9773C37.1115 46.9773 46.7226 37.8093 46.7226 26.5C46.7226 15.1907 37.1115 6.02273 25.2555 6.02273C13.3995 6.02273 3.78832 15.1907 3.78832 26.5C3.78832 37.8093 13.3995 46.9773 25.2555 46.9773Z" stroke="#FFA500" stroke-width="6"/>
<path d="M163.813 18V35.8361H160.041V18H163.813ZM172.743 23.28L166.589 29.5L163.289 32.4592L161.914 30.0455L164.533 27.0979L168.212 23.28H172.743ZM168.828 35.8361L164.638 30.0338L167.243 28.0147L173.175 35.8361H168.828Z" fill="#1F2937"/>
<path d="M152.08 36.0682C150.98 36.0682 149.993 35.9135 149.12 35.604C148.247 35.2868 147.505 34.8497 146.894 34.2927C146.292 33.7357 145.829 33.0897 145.506 32.3547C145.183 31.6121 145.022 30.823 145.022 29.9874V29.5233C145.022 28.5717 145.175 27.7013 145.48 26.9122C145.786 26.1231 146.222 25.4385 146.79 24.8583C147.366 24.278 148.064 23.8332 148.885 23.5237C149.705 23.2065 150.631 23.048 151.661 23.048C152.665 23.048 153.555 23.1949 154.332 23.4889C155.109 23.7829 155.759 24.2007 156.283 24.7422C156.816 25.2837 157.217 25.9336 157.488 26.6918C157.758 27.4422 157.894 28.2777 157.894 29.1983V30.5909H146.632V28.3628H154.188V28.1075C154.188 27.6433 154.092 27.2294 153.9 26.8658C153.717 26.4945 153.437 26.2005 153.062 25.9839C152.687 25.7673 152.206 25.659 151.621 25.659C151.124 25.659 150.696 25.7557 150.338 25.9491C149.98 26.1425 149.688 26.4133 149.461 26.7614C149.243 27.1095 149.077 27.5195 148.963 27.9915C148.859 28.4556 148.806 28.9662 148.806 29.5233V29.9874C148.806 30.4903 148.885 30.9545 149.042 31.38C149.208 31.8055 149.439 32.1729 149.736 32.4824C150.041 32.7918 150.408 33.0317 150.836 33.2019C151.272 33.3721 151.766 33.4572 152.316 33.4572C152.996 33.4572 153.629 33.3411 154.214 33.109C154.808 32.8692 155.319 32.5095 155.746 32.0298L157.58 33.7937C157.283 34.1728 156.877 34.5364 156.362 34.8845C155.855 35.2327 155.244 35.5189 154.528 35.7433C153.813 35.9599 152.996 36.0682 152.08 36.0682Z" fill="#1F2937"/>
<path d="M137.597 36.0682C136.497 36.0682 135.511 35.9135 134.638 35.604C133.765 35.2868 133.023 34.8497 132.412 34.2927C131.809 33.7357 131.347 33.0897 131.024 32.3547C130.701 31.6121 130.539 30.823 130.539 29.9874V29.5233C130.539 28.5717 130.692 27.7013 130.998 26.9122C131.303 26.1231 131.74 25.4385 132.307 24.8583C132.883 24.278 133.582 23.8332 134.402 23.5237C135.223 23.2065 136.148 23.048 137.178 23.048C138.182 23.048 139.073 23.1949 139.849 23.4889C140.626 23.7829 141.277 24.2007 141.801 24.7422C142.333 25.2837 142.735 25.9336 143.005 26.6918C143.276 27.4422 143.411 28.2777 143.411 29.1983V30.5909H132.15V28.3628H139.705V28.1075C139.705 27.6433 139.609 27.2294 139.417 26.8658C139.234 26.4945 138.955 26.2005 138.579 25.9839C138.204 25.7673 137.724 25.659 137.139 25.659C136.641 25.659 136.214 25.7557 135.856 25.9491C135.498 26.1425 135.205 26.4133 134.978 26.7614C134.76 27.1095 134.594 27.5195 134.481 27.9915C134.376 28.4556 134.324 28.9662 134.324 29.5233V29.9874C134.324 30.4903 134.402 30.9545 134.559 31.38C134.725 31.8055 134.956 32.1729 135.253 32.4824C135.559 32.7918 135.925 33.0317 136.353 33.2019C136.79 33.3721 137.283 33.4572 137.833 33.4572C138.514 33.4572 139.147 33.3411 139.732 33.109C140.325 32.8692 140.836 32.5095 141.264 32.0298L143.097 33.7937C142.8 34.1728 142.394 34.5364 141.879 34.8845C141.373 35.2327 140.762 35.5189 140.046 35.7433C139.33 35.9599 138.514 36.0682 137.597 36.0682Z" fill="#1F2937"/>
<path d="M124.712 31.4148C124.712 31.1131 124.66 30.8423 124.555 30.6025C124.459 30.3549 124.276 30.1306 124.005 29.9294C123.734 29.7205 123.355 29.5155 122.866 29.3144C122.377 29.1132 121.744 28.9043 120.967 28.6877C120.103 28.4402 119.282 28.1617 118.505 27.8522C117.737 27.5428 117.056 27.183 116.463 26.773C115.878 26.3552 115.415 25.8717 115.074 25.3224C114.743 24.7731 114.577 24.1349 114.577 23.4077C114.577 22.7037 114.751 22.0654 115.101 21.4929C115.45 20.9127 115.939 20.4176 116.567 20.0076C117.196 19.5898 117.938 19.2688 118.793 19.0444C119.658 18.82 120.605 18.7079 121.635 18.7079C123.04 18.7079 124.267 18.9322 125.314 19.3809C126.362 19.8296 127.174 20.4447 127.75 21.226C128.335 22.0074 128.627 22.901 128.627 23.9067H124.725C124.725 23.4116 124.607 22.9783 124.372 22.607C124.145 22.2279 123.795 21.9301 123.324 21.7134C122.861 21.4968 122.277 21.3885 121.569 21.3885C120.888 21.3885 120.321 21.4813 119.867 21.667C119.413 21.845 119.073 22.0886 118.846 22.3981C118.619 22.6998 118.505 23.0402 118.505 23.4193C118.505 23.7055 118.584 23.9647 118.741 24.1968C118.907 24.4289 119.151 24.6455 119.474 24.8466C119.797 25.0478 120.194 25.2373 120.666 25.4153C121.137 25.5932 121.683 25.7673 122.303 25.9375C123.342 26.216 124.254 26.5293 125.039 26.8774C125.834 27.2256 126.497 27.6162 127.03 28.0495C127.562 28.4827 127.964 28.974 128.235 29.5233C128.505 30.0725 128.64 30.6953 128.64 31.3916C128.64 32.1265 128.479 32.7841 128.156 33.3643C127.833 33.9446 127.366 34.4358 126.755 34.8381C126.144 35.2404 125.415 35.546 124.568 35.7549C123.721 35.9637 122.774 36.0682 121.727 36.0682C120.784 36.0682 119.854 35.9599 118.937 35.7433C118.021 35.5189 117.187 35.1824 116.436 34.7337C115.694 34.285 115.101 33.7125 114.655 33.0162C114.21 32.3199 113.988 31.496 113.988 30.5444H117.929C117.929 31.0705 118.021 31.5154 118.204 31.879C118.387 32.2426 118.645 32.5365 118.977 32.7609C119.317 32.9853 119.719 33.1477 120.181 33.2483C120.653 33.3489 121.168 33.3991 121.727 33.3991C122.407 33.3991 122.966 33.314 123.403 33.1439C123.848 32.9737 124.175 32.7377 124.385 32.436C124.603 32.1343 124.712 31.7939 124.712 31.4148Z" fill="#1F2937"/>
<path d="M103.211 25.9607V35.8361H99.4396V23.28H102.975L103.211 25.9607ZM102.661 29.1171H101.639C101.639 28.1887 101.775 27.3532 102.045 26.6105C102.316 25.8601 102.696 25.2219 103.185 24.6958C103.673 24.162 104.254 23.7558 104.926 23.4773C105.607 23.1911 106.367 23.048 107.205 23.048C107.868 23.048 108.475 23.1331 109.025 23.3032C109.575 23.4734 110.046 23.7442 110.439 24.1156C110.841 24.4869 111.146 24.9782 111.356 25.5893C111.574 26.2005 111.683 26.9471 111.683 27.829V35.8361H107.886V27.8174C107.886 27.2604 107.798 26.8271 107.624 26.5177C107.449 26.2082 107.192 25.9916 106.851 25.8678C106.519 25.7363 106.109 25.6706 105.62 25.6706C105.114 25.6706 104.673 25.7595 104.298 25.9375C103.931 26.1154 103.625 26.363 103.381 26.6802C103.145 26.9896 102.966 27.3532 102.844 27.771C102.722 28.1887 102.661 28.6374 102.661 29.1171Z" fill="#1F2937"/>
<path d="M84.4332 18.0114H88.2044V32.958L87.8247 35.8359H84.4332V18.0114ZM97.1742 29.4302V29.6739C97.1742 30.61 97.0607 31.4687 96.8337 32.2501C96.6155 33.0315 96.275 33.7084 95.8124 34.2809C95.3497 34.8456 94.7735 35.2866 94.0839 35.6038C93.403 35.9132 92.5998 36.068 91.6745 36.068C90.8102 36.068 90.0595 35.9132 89.4222 35.6038C88.7937 35.2943 88.2655 34.8572 87.8378 34.2925C87.41 33.7277 87.0652 33.0663 86.8033 32.3081C86.5414 31.55 86.345 30.7222 86.214 29.8248V29.2909C86.345 28.3935 86.5414 27.5657 86.8033 26.8076C87.0652 26.0494 87.41 25.388 87.8378 24.8232C88.2655 24.2585 88.7937 23.8214 89.4222 23.5119C90.0507 23.2025 90.7928 23.0477 91.6483 23.0477C92.5824 23.0477 93.3942 23.2063 94.0839 23.5235C94.7823 23.833 95.3584 24.2739 95.8124 24.8464C96.275 25.4112 96.6155 26.0842 96.8337 26.8656C97.0607 27.6392 97.1742 28.4941 97.1742 29.4302ZM93.403 29.6739V29.4302C93.403 28.9196 93.3593 28.4399 93.272 27.9912C93.1934 27.5348 93.0538 27.1364 92.853 26.796C92.6522 26.4478 92.3772 26.1732 92.028 25.9721C91.6876 25.7709 91.2467 25.6703 90.7055 25.6703C90.1904 25.6703 89.7539 25.7477 89.396 25.9024C89.0381 26.0572 88.7413 26.2738 88.5056 26.5523C88.2786 26.8308 88.1084 27.1635 87.9949 27.5503C87.8814 27.9294 87.8116 28.3471 87.7854 28.8036V30.3237C87.8116 30.9349 87.9251 31.4765 88.1258 31.9484C88.3354 32.4126 88.6496 32.78 89.0686 33.0508C89.4964 33.3138 90.0507 33.4454 90.7317 33.4454C91.2642 33.4454 91.705 33.3525 92.0542 33.1668C92.4034 32.9812 92.674 32.7181 92.8661 32.3777C93.0669 32.0373 93.2065 31.6389 93.2851 31.1825C93.3637 30.7183 93.403 30.2154 93.403 29.6739Z" fill="#1F2937"/>
<path d="M78.3835 26.0187V35.8361H74.6122V23.28H78.1609L78.3835 26.0187ZM82.6523 23.1988L82.5868 26.2972C82.4035 26.274 82.1809 26.2547 81.919 26.2392C81.6658 26.216 81.4345 26.2044 81.225 26.2044C80.6925 26.2044 80.2298 26.2663 79.837 26.39C79.4529 26.5061 79.1299 26.6802 78.868 26.9122C78.6148 27.1443 78.4227 27.4267 78.2918 27.7594C78.1696 28.092 78.0997 28.4711 78.0823 28.8966L77.3228 28.6877C77.3228 27.8754 77.4145 27.1289 77.5978 26.4481C77.7811 25.7595 78.0474 25.16 78.3966 24.6494C78.7545 24.1388 79.191 23.7442 79.706 23.4657C80.2211 23.1872 80.8103 23.048 81.4738 23.048C81.6833 23.048 81.8972 23.0634 82.1154 23.0944C82.3337 23.1176 82.5126 23.1524 82.6523 23.1988Z" fill="#1F2937"/>
<path d="M67.6983 18.94H71.6136V30.1035C71.6136 31.4032 71.2993 32.4979 70.6708 33.3875C70.0509 34.2772 69.1911 34.9464 68.0911 35.3951C66.9999 35.8438 65.7428 36.0682 64.3199 36.0682C62.8969 36.0682 61.6311 35.8438 60.5224 35.3951C59.4225 34.9464 58.5583 34.2772 57.9297 33.3875C57.3099 32.4979 57 31.4032 57 30.1035V18.94H60.9284V30.1035C60.9284 30.8616 61.0637 31.4805 61.3343 31.9602C61.6049 32.4398 61.9934 32.7918 62.4997 33.0162C63.0148 33.2406 63.6215 33.3527 64.3199 33.3527C65.0357 33.3527 65.6424 33.2406 66.14 33.0162C66.6463 32.7918 67.0305 32.4398 67.2923 31.9602C67.563 31.4805 67.6983 30.8616 67.6983 30.1035V18.94Z" fill="#1F2937"/>
<path fill-rule="evenodd" clip-rule="evenodd" d="M21.6925 16.6746C24.1756 15.2984 27.2277 15.3224 29.6875 16.7376C32.1231 18.1817 33.6034 20.7588 33.5896 23.5312C33.5329 26.2853 31.9456 28.8742 29.9615 30.8755C28.8163 32.0358 27.5352 33.0618 26.1444 33.9326C26.0012 34.0116 25.8443 34.0645 25.6815 34.0886C25.5247 34.0823 25.3721 34.0381 25.2374 33.9601C23.114 32.6517 21.2512 30.9817 19.7385 29.0302C18.4728 27.4013 17.7537 25.4333 17.6788 23.3935C17.6772 20.6158 19.2094 18.0509 21.6925 16.6746ZM23.1278 24.5431C23.5455 25.5254 24.5314 26.1661 25.6252 26.1661C26.3417 26.171 27.0305 25.8972 27.5381 25.4057C28.0457 24.9142 28.3299 24.2459 28.3273 23.5496C28.3312 22.4869 27.6752 21.5267 26.6658 21.1174C25.6564 20.7081 24.4926 20.9304 23.7178 21.6806C22.943 22.4308 22.7101 23.5609 23.1278 24.5431Z" fill="#FFA500"/>
<ellipse opacity="0.4" cx="25.6338" cy="36.2567" rx="5.68248" ry="1.08409" fill="#FFA500"/>
</g>
<defs>
<clipPath id="clip0_0_3">
<rect width="173" height="53" fill="white"/>
</clipPath>
</defs>
</svg>
